<?xml version="1.0" encoding="UTF-8"?>
<svg id="Calque_1" data-name="Calque 1" xmlns="http://www.w3.org/2000/svg" viewBox="0 0 80 43.65">
  <defs>
    <style>
      .cls-1 {
        fill: #217fad;
      }
    </style>
  </defs>
  <path class="cls-1" d="M79.71,20.57c-4.36-6.22-10.19-11.39-16.88-14.94C55.93,1.94,48.11,0,40.23,0,24.19,0,9.25,7.95.27,21.27c-.37.55-.36,1.27.02,1.81,4.36,6.22,10.19,11.39,16.88,14.94,6.91,3.68,14.72,5.62,22.6,5.62,16.04,0,30.98-7.95,39.96-21.27.37-.55.36-1.27-.02-1.81ZM39.77,40.45c-14.28,0-27.74-6.82-36.21-18.3C12,10.26,25.63,3.2,40.24,3.2s27.74,6.82,36.21,18.3c-8.44,11.89-22.07,18.95-36.68,18.95ZM40,6.14c-8.64,0-15.68,7.04-15.68,15.68s7.04,15.68,15.68,15.68,15.68-7.04,15.68-15.68-7.04-15.68-15.68-15.68ZM40,34.3c-6.88,0-12.48-5.6-12.48-12.48s5.6-12.48,12.48-12.48,12.48,5.6,12.48,12.48-5.6,12.48-12.48,12.48Z"/>
</svg>