<?xml version="1.0" encoding="UTF-8"?>
<svg id="Calque_1" data-name="Calque 1" xmlns="http://www.w3.org/2000/svg" viewBox="0 0 85 85">
  <defs>
    <style>
      .cls-1 {
        fill: #014f86;
      }
    </style>
  </defs>
  <path class="cls-1" d="M2.5,85h64c1.38,0,2.5-1.12,2.5-2.5v-13.5h13.5c1.38,0,2.5-1.12,2.5-2.5V2.5c0-1.38-1.12-2.5-2.5-2.5H18.5c-1.38,0-2.5,1.12-2.5,2.5v13.5H2.5c-1.38,0-2.5,1.12-2.5,2.5v64c0,1.38,1.12,2.5,2.5,2.5ZM21,5h59v59H21V5ZM5,21h11v45.5c0,1.38,1.12,2.5,2.5,2.5h45.5v11H5V21ZM36.73,48.27c-.97-.98-.97-2.56,0-3.54l19.77-19.73h-10c-1.38,0-2.5-1.12-2.5-2.5s1.12-2.5,2.5-2.5h16c.16,0,.33.02.49.05l.22.06.25.08.24.13.19.1c.27.18.51.42.69.69,0,.06.06.13.1.19l.13.24c0,.08,0,.17.08.25.03.07.05.15.06.22.01.16.01.33,0,.49v16c0,1.38-1.12,2.5-2.5,2.5s-2.5-1.12-2.5-2.5v-10l-19.68,19.77c-.98.97-2.56.97-3.54,0Z"/>
</svg>