<?xml version="1.0" encoding="UTF-8"?>
<svg id="Calque_1" data-name="Calque 1" xmlns="http://www.w3.org/2000/svg" viewBox="0 0 87.5 87.5">
  <defs>
    <style>
      .cls-1 {
        fill: #014f86;
      }
    </style>
  </defs>
  <path class="cls-1" d="M78.12,0H9.38C4.06,0,0,4.06,0,9.38v68.75c0,5.31,4.06,9.38,9.38,9.38h68.75c5.31,0,9.38-4.06,9.38-9.38V9.38c0-5.31-4.06-9.38-9.38-9.38ZM58.44,54.06c1.25,1.25,1.25,3.12,0,4.37-.62.62-1.25.94-2.19.94s-1.56-.31-2.19-.94l-10.31-10.31-10.31,10.31c-.62.62-1.25.94-2.19.94s-1.56-.31-2.19-.94c-1.25-1.25-1.25-3.12,0-4.38l10.31-10.31-10.31-10.31c-1.25-1.25-1.25-3.12,0-4.38s3.12-1.25,4.38,0l10.31,10.31,10.31-10.31c1.25-1.25,3.12-1.25,4.38,0s1.25,3.12,0,4.38l-10.31,10.31,10.31,10.31Z"/>
</svg>